<?xml version="1.0" encoding="UTF-8"?>
<svg xmlns="http://www.w3.org/2000/svg" xmlns:xlink="http://www.w3.org/1999/xlink" width="24pt" height="24pt" viewBox="0 0 24 24" version="1.1">
<g id="surface1">
<path style=" stroke:none;fill-rule:nonzero;fill:rgb(0%,68.235294%,100%);fill-opacity:1;" d="M 16.761719 9.449219 C 14.664062 8.476562 11.664062 7.875 8.851562 8.101562 C 9 7.164062 9.335938 6.523438 9.898438 6.375 C 10.6875 6.1875 11.550781 6.710938 12.375 7.648438 C 12.898438 7.726562 13.539062 7.835938 13.988281 7.949219 C 12.523438 5.136719 10.5 3.5625 8.960938 4.125 C 7.800781 4.574219 7.199219 6.148438 7.273438 8.324219 C 5.773438 8.664062 4.574219 9.226562 3.824219 10.050781 C 3.789062 10.085938 3.710938 10.199219 3.710938 10.273438 C 3.75 10.3125 3.824219 10.273438 3.863281 10.238281 C 4.726562 9.636719 5.851562 9.300781 7.3125 9.074219 C 7.539062 11.363281 8.476562 14.289062 10.085938 16.613281 C 9.226562 16.949219 8.476562 16.988281 8.0625 16.539062 C 7.5 15.9375 7.539062 14.960938 7.949219 13.761719 C 7.726562 13.273438 7.539062 12.636719 7.386719 12.226562 C 5.699219 14.925781 5.324219 17.4375 6.601562 18.488281 C 7.574219 19.273438 9.261719 18.976562 11.0625 17.851562 C 12.113281 19.011719 13.199219 19.726562 14.289062 19.988281 C 14.363281 19.988281 14.476562 20.023438 14.511719 19.949219 C 14.550781 19.914062 14.476562 19.875 14.4375 19.835938 C 13.460938 19.386719 12.636719 18.5625 11.699219 17.4375 C 13.574219 16.125 15.601562 13.835938 16.835938 11.25 C 17.585938 11.851562 17.960938 12.449219 17.8125 13.050781 C 17.585938 13.835938 16.6875 14.324219 15.488281 14.550781 C 15.148438 14.960938 14.738281 15.488281 14.4375 15.789062 C 17.625 15.898438 19.988281 14.960938 20.25 13.351562 C 20.4375 12.113281 19.351562 10.800781 17.476562 9.789062 C 17.960938 8.324219 18.039062 7.011719 17.699219 5.960938 C 17.664062 5.925781 17.625 5.773438 17.550781 5.773438 C 17.511719 5.773438 17.511719 5.851562 17.511719 5.886719 C 17.585938 6.9375 17.324219 8.101562 16.761719 9.449219 Z M 10.914062 16.238281 C 9.5625 14.0625 8.773438 11.511719 8.773438 8.960938 C 11.324219 8.886719 13.914062 9.488281 16.125 10.761719 C 14.960938 13.011719 13.125 14.960938 10.914062 16.238281 Z M 10.914062 16.238281 "/>
</g>
</svg>
